<?xml version="1.0" standalone="no"?>
<!DOCTYPE svg PUBLIC "-//W3C//DTD SVG 20010904//EN"
 "http://www.w3.org/TR/2001/REC-SVG-20010904/DTD/svg10.dtd">
<svg version="1.0" xmlns="http://www.w3.org/2000/svg"
 width="400.000000pt" height="400.000000pt" viewBox="0 0 400.000000 400.000000"
 preserveAspectRatio="xMidYMid meet">
<metadata>
Created by potrace 1.14, written by Peter Selinger 2001-2017
</metadata>
<g transform="translate(0.000000,400.000000) scale(0.100000,-0.100000)"
fill="#000000" stroke="none">
<path d="M1765 3698 c-246 -260 -624 -743 -998 -1278 -76 -107 -137 -204 -137
-215 0 -35 62 -115 226 -289 291 -308 375 -400 503 -545 255 -289 519 -638
694 -915 l81 -129 13 89 c54 390 207 750 457 1079 88 117 312 341 461 463 142
117 265 232 265 249 0 18 -380 456 -739 853 -183 202 -708 740 -722 740 -4 0
-51 -46 -104 -102z"/>
</g>
</svg>
